<svg xmlns="http://www.w3.org/2000/svg" viewBox="0 0 512 512" width="512" height="512">
  <defs>
    <linearGradient id="bg" x1="0%" y1="0%" x2="100%" y2="100%">
      <stop offset="0%" style="stop-color:#6366f1"/>
      <stop offset="100%" style="stop-color:#8b5cf6"/>
    </linearGradient>
    <linearGradient id="shine" x1="0%" y1="0%" x2="100%" y2="100%">
      <stop offset="0%" style="stop-color:#ffffff;stop-opacity:0.3"/>
      <stop offset="50%" style="stop-color:#ffffff;stop-opacity:0"/>
    </linearGradient>
  </defs>
  <rect width="512" height="512" rx="96" fill="url(#bg)"/>
  <rect width="512" height="512" rx="96" fill="url(#shine)"/>
  <g fill="white">
    <circle cx="200" cy="200" r="40" opacity="0.9"/>
    <circle cx="312" cy="200" r="40" opacity="0.9"/>
    <path d="M160 300 Q256 380 352 300" stroke="white" stroke-width="24" fill="none" stroke-linecap="round"/>
    <circle cx="140" cy="140" r="16" opacity="0.6"/>
    <circle cx="372" cy="140" r="16" opacity="0.6"/>
    <circle cx="256" cy="100" r="12" opacity="0.4"/>
  </g>
  <g fill="white" opacity="0.3">
    <rect x="80" y="400" width="60" height="8" rx="4"/>
    <rect x="160" y="400" width="40" height="8" rx="4"/>
    <rect x="80" y="420" width="100" height="8" rx="4"/>
    <rect x="312" y="400" width="60" height="8" rx="4"/>
    <rect x="392" y="400" width="40" height="8" rx="4"/>
    <rect x="312" y="420" width="80" height="8" rx="4"/>
  </g>
</svg>
